<?xml version="1.0" encoding="utf-8"?>
<!-- Generator: Adobe Illustrator 15.0.0, SVG Export Plug-In . SVG Version: 6.00 Build 0)  -->
<!DOCTYPE svg PUBLIC "-//W3C//DTD SVG 1.1//EN" "http://www.w3.org/Graphics/SVG/1.1/DTD/svg11.dtd">
<svg version="1.1" id="Layer_1" xmlns="http://www.w3.org/2000/svg" xmlns:xlink="http://www.w3.org/1999/xlink" x="0px" y="0px"
	 width="64px" height="64px" viewBox="0 0 64 64" enable-background="new 0 0 64 64" xml:space="preserve">
<path d="M32,1.008C14.885,1.008,1.008,14.885,1.008,32c0,17.117,13.877,30.992,30.992,30.992c17.117,0,30.992-13.875,30.992-30.992
	C62.992,14.885,49.117,1.008,32,1.008z M33.898,48.629c-0.719,0.711-1.719,1.066-3,1.066c-1.313,0-2.328-0.348-3.047-1.043
	s-1.078-1.676-1.078-2.941c0-1.313,0.352-2.305,1.055-2.977s1.727-1.008,3.07-1.008c1.297,0,2.301,0.344,3.012,1.031
	s1.066,1.672,1.066,2.953C34.977,46.945,34.617,47.918,33.898,48.629z M41.633,27.266c-0.781,1.25-2.266,2.656-4.453,4.219
	c-1.5,1.109-2.449,1.953-2.848,2.531s-0.598,1.336-0.598,2.273v1.406h-6.211v-1.734c0-1.5,0.32-2.805,0.961-3.914
	s1.813-2.289,3.516-3.539c1.641-1.172,2.723-2.125,3.246-2.859s0.785-1.555,0.785-2.461c0-1.016-0.375-1.789-1.125-2.32
	s-1.797-0.797-3.141-0.797c-2.344,0-5.016,0.766-8.016,2.297l-2.555-5.133c3.484-1.953,7.18-2.93,11.086-2.93
	c3.219,0,5.777,0.773,7.676,2.32s2.848,3.609,2.848,6.188C42.805,24.531,42.414,26.016,41.633,27.266z"/>
</svg>
