<?xml version="1.0" encoding="utf-8"?>
<!-- Generator: Adobe Illustrator 15.0.0, SVG Export Plug-In . SVG Version: 6.00 Build 0)  -->
<!DOCTYPE svg PUBLIC "-//W3C//DTD SVG 1.1//EN" "http://www.w3.org/Graphics/SVG/1.1/DTD/svg11.dtd">
<svg version="1.1" id="Layer_1" xmlns="http://www.w3.org/2000/svg" xmlns:xlink="http://www.w3.org/1999/xlink" x="0px" y="0px"
	 width="64px" height="64px" viewBox="0 0 64 64" enable-background="new 0 0 64 64" xml:space="preserve">
<g>
	<path d="M59.446,32.271c0-15.188-12.312-27.501-27.501-27.501S4.444,17.082,4.444,32.271c0,7.362,2.898,14.044,7.609,18.979
		l-4.343,9.307l3.396,2.613l8.826-6.155c3.63,1.765,7.704,2.757,12.012,2.757c4.123,0,8.031-0.913,11.541-2.539l8.515,5.938
		l3.396-2.613l-4.088-8.762C56.333,46.813,59.446,39.906,59.446,32.271z M31.848,55.102c-12.305,0-22.276-9.974-22.276-22.275
		c0-12.302,9.972-22.275,22.276-22.275c12.302,0,22.274,9.973,22.274,22.275C54.122,45.128,44.149,55.102,31.848,55.102z"/>
	<path d="M19.452,3.889C15.919,0.053,9.949-0.212,6.094,3.304C2.237,6.821,1.952,12.791,5.448,16.66L19.452,3.889z"/>
	<path d="M57.906,3.304c-3.855-3.517-9.825-3.251-13.358,0.585L58.552,16.66C62.048,12.791,61.763,6.821,57.906,3.304z"/>
	<path d="M31.847,12.315c-11.329,0-20.512,9.183-20.512,20.511s9.183,20.511,20.512,20.511c11.328,0,20.511-9.183,20.511-20.511
		S43.175,12.315,31.847,12.315z M29.921,33.905l0.522-16.854l3.396,15.416l9.275,8.884L29.921,33.905z"/>
</g>
</svg>
