<?xml version="1.0" encoding="utf-8"?>
<!-- Generator: Adobe Illustrator 15.0.0, SVG Export Plug-In . SVG Version: 6.00 Build 0)  -->
<!DOCTYPE svg PUBLIC "-//W3C//DTD SVG 1.1//EN" "http://www.w3.org/Graphics/SVG/1.1/DTD/svg11.dtd">
<svg version="1.1" id="Layer_1" xmlns="http://www.w3.org/2000/svg" xmlns:xlink="http://www.w3.org/1999/xlink" x="0px" y="0px"
	 width="64px" height="64px" viewBox="0 0 64 64" enable-background="new 0 0 64 64" xml:space="preserve">
<path d="M58.301,8.17c-7.934-7.269-15.702-1.233-15.702-1.233L5.848,43.688c0,0-6.714,6.389-0.834,12.591
	c7.093,7.48,14.093-0.749,14.215-0.895L43.894,30.72c0.554-0.502,7.301-6.788,2.889-11.376c-4.999-5.197-11.055,0.854-12.241,2.146
	L14.198,41.834l1.537,1.537l20.244-20.245l0.001,0.001c0,0,0.006-0.006,0.016-0.018c0,0,5.957-5.922,9.26-2.621
	c3.069,3.068-2.178,8.041-2.863,8.666l-0.004-0.004L17.698,53.84h-0.001c0,0-0.005,0.006-0.006,0.007l-0.036,0.036l0.002,0.002
	c-0.503,0.572-6.261,6.856-11.318,0.897c-4.119-4.853,1.357-9.837,1.357-9.837l-0.019-0.013L44.136,8.474
	c0,0,6.549-4.963,13.019,1.286c4.347,4.198,0.999,11.794,0.999,11.794l0.002,0.002L35.573,44.138l1.537,1.537L59.985,22.8
	C59.985,22.8,64.096,13.479,58.301,8.17z"/>
</svg>
