<?xml version="1.0" encoding="utf-8"?>
<!-- Generator: Adobe Illustrator 15.0.0, SVG Export Plug-In . SVG Version: 6.00 Build 0)  -->
<!DOCTYPE svg PUBLIC "-//W3C//DTD SVG 1.1//EN" "http://www.w3.org/Graphics/SVG/1.1/DTD/svg11.dtd">
<svg version="1.1" id="Layer_1" xmlns="http://www.w3.org/2000/svg" xmlns:xlink="http://www.w3.org/1999/xlink" x="0px" y="0px"
	 width="64px" height="64px" viewBox="0 0 64 64" enable-background="new 0 0 64 64" xml:space="preserve">
<g>
	<path d="M50.438,7.94v8.108h-8.973V7.94H22.414v8.108h-8.973V7.94H4.553v54.198h54.895V7.94H50.438z M56.417,58.163h-49V20.061h49
		V58.163z"/>
	<rect x="15.493" y="1.861" width="5" height="12.167"/>
	<rect x="43.493" y="1.861" width="5" height="12.167"/>
	<path d="M20.983,34.701c0.296-0.236,0.822-0.733,1.581-1.492l-0.073,2.246l-0.045,2.055v12.5h4.566V28.407h-3.754L16.3,33.948
		l2.201,2.749L20.983,34.701z"/>
	<path d="M45.469,48.355c1.487-1.301,2.231-3.157,2.231-5.57c0-2.04-0.619-3.646-1.854-4.818c-1.236-1.172-2.899-1.758-4.987-1.758
		c-0.887,0-1.631,0.068-2.231,0.207l-0.518,0.104l0.399-4.241h7.713v-3.872H34.504l-0.813,11.009l1.817,0.975
		c0.395-0.118,0.906-0.229,1.537-0.332c0.63-0.104,1.207-0.155,1.729-0.155c2.887,0,4.33,1.089,4.33,3.265
		c0,2.286-1.395,3.429-4.182,3.429c-0.927,0-1.906-0.13-2.94-0.392c-1.035-0.261-1.941-0.598-2.72-1.012v3.945
		c1.478,0.777,3.419,1.167,5.822,1.167C41.854,50.306,43.98,49.656,45.469,48.355z"/>
</g>
</svg>
