<?xml version="1.0" encoding="utf-8"?>
<!-- Generator: Adobe Illustrator 15.0.0, SVG Export Plug-In . SVG Version: 6.00 Build 0)  -->
<!DOCTYPE svg PUBLIC "-//W3C//DTD SVG 1.1//EN" "http://www.w3.org/Graphics/SVG/1.1/DTD/svg11.dtd">
<svg version="1.1" id="Layer_1" xmlns="http://www.w3.org/2000/svg" xmlns:xlink="http://www.w3.org/1999/xlink" x="0px" y="0px"
	 width="64px" height="64px" viewBox="0 0 64 64" enable-background="new 0 0 64 64" xml:space="preserve">
<g>
	<rect x="13.871" y="1.86" fill="#231F20" width="5" height="12.168"/>
	<rect x="41.871" y="1.86" fill="#231F20" width="5" height="12.168"/>
	<path fill="#231F20" d="M43.391,31.077c-7.377,0-13.357,5.98-13.357,13.357s5.98,13.357,13.357,13.357s13.355-5.98,13.355-13.357
		S50.768,31.077,43.391,31.077z M42.137,45.138l0.34-10.975l2.211,10.039l6.043,5.785L42.137,45.138z"/>
	<path fill="#231F20" d="M61.07,44.435c0-9.766-7.914-17.68-17.68-17.68s-17.682,7.914-17.682,17.68s7.916,17.68,17.682,17.68
		S61.07,54.2,61.07,44.435z M43.391,59.071c-8.084,0-14.637-6.555-14.637-14.637c0-8.084,6.553-14.637,14.637-14.637
		c8.082,0,14.635,6.553,14.635,14.637C58.025,52.517,51.473,59.071,43.391,59.071z"/>
	<path fill="#231F20" d="M5.795,58.163V20.062h49v8.637c1.104,0.803,2.117,1.717,3.029,2.729V7.94h-9.01v8.109h-8.973V7.94H20.793
		v8.109H11.82V7.94H2.93V62.14h32.434c-2.154-0.979-4.105-2.322-5.754-3.977H5.795z"/>
	<path fill="#231F20" d="M51.418,62.14h6.406v-4.697C56.043,59.419,53.871,61.024,51.418,62.14z"/>
</g>
</svg>
