<?xml version="1.0" encoding="utf-8"?>
<!-- Generator: Adobe Illustrator 15.0.0, SVG Export Plug-In . SVG Version: 6.00 Build 0)  -->
<!DOCTYPE svg PUBLIC "-//W3C//DTD SVG 1.1//EN" "http://www.w3.org/Graphics/SVG/1.1/DTD/svg11.dtd">
<svg version="1.1" id="Layer_1" xmlns="http://www.w3.org/2000/svg" xmlns:xlink="http://www.w3.org/1999/xlink" x="0px" y="0px"
	 width="64px" height="64px" viewBox="0 0 64 64" enable-background="new 0 0 64 64" xml:space="preserve">
<path d="M55.758,38.922c-4.226-3.77-10.708-3.402-14.479,0.824c-0.332,0.372-0.621,0.768-0.891,1.172l-15.514-5.943
	c0.341-1.122,0.505-2.317,0.435-3.556c-0.026-0.463-0.093-0.913-0.178-1.356l15.347-6.846c1.962,2.859,5.317,4.66,9.031,4.45
	c5.654-0.322,9.978-5.165,9.656-10.819S54.001,6.87,48.348,7.191s-9.978,5.165-9.656,10.819c0.028,0.499,0.104,0.982,0.2,1.458
	l-15.309,6.829c-1.954-2.909-5.34-4.749-9.092-4.535c-5.654,0.321-9.977,5.165-9.656,10.819c0.321,5.653,5.165,9.977,10.819,9.657
	c2.939-0.168,5.511-1.564,7.266-3.654L38.86,44.69c-0.634,3.409,0.466,7.056,3.24,9.532c4.226,3.77,10.708,3.402,14.479-0.822
	S59.981,42.693,55.758,38.922z"/>
</svg>
