<?xml version="1.0" encoding="utf-8"?>
<!-- Generator: Adobe Illustrator 15.0.0, SVG Export Plug-In . SVG Version: 6.00 Build 0)  -->
<!DOCTYPE svg PUBLIC "-//W3C//DTD SVG 1.1//EN" "http://www.w3.org/Graphics/SVG/1.1/DTD/svg11.dtd">
<svg version="1.1" id="Layer_1" xmlns="http://www.w3.org/2000/svg" xmlns:xlink="http://www.w3.org/1999/xlink" x="0px" y="0px"
	 width="64px" height="64px" viewBox="0 0 64 64" enable-background="new 0 0 64 64" xml:space="preserve">
<path d="M59.344,42.475l1.891-12.681l-7.588-1.132c-0.143-0.936-0.35-1.867-0.617-2.788l6.338-4.691l-7.631-10.305l-5.764,4.267
	c-1.049-0.866-2.18-1.631-3.373-2.287l1.176-7.886L31.093,3.08l-1.074,7.2c-1.777,0.172-3.521,0.563-5.204,1.167L20.12,5.108
	L9.816,12.736l4.732,6.392c-0.784,1.074-1.465,2.212-2.036,3.399l-7.855-1.171L2.765,34.038l7.855,1.17
	c0.205,1.349,0.541,2.678,0.999,3.974l-6.148,4.555L13.1,54.039l6.163-4.563c1.094,0.804,2.252,1.5,3.463,2.083l-1.113,7.471
	l12.68,1.891l1.115-7.472c1.303-0.198,2.588-0.518,3.846-0.955l4.604,6.216L54.16,51.08l-4.564-6.164
	c0.838-1.123,1.561-2.317,2.162-3.573L59.344,42.475z M32,39.004c-3.868,0-7.004-3.136-7.004-7.004s3.136-7.004,7.004-7.004
	s7.004,3.136,7.004,7.004S35.868,39.004,32,39.004z"/>
</svg>
