<?xml version="1.0" encoding="utf-8"?>
<!-- Generator: Adobe Illustrator 15.0.0, SVG Export Plug-In . SVG Version: 6.00 Build 0)  -->
<!DOCTYPE svg PUBLIC "-//W3C//DTD SVG 1.1//EN" "http://www.w3.org/Graphics/SVG/1.1/DTD/svg11.dtd">
<svg version="1.1" id="Layer_1" xmlns="http://www.w3.org/2000/svg" xmlns:xlink="http://www.w3.org/1999/xlink" x="0px" y="0px"
	 width="64px" height="64px" viewBox="0 0 64 64" enable-background="new 0 0 64 64" xml:space="preserve">
<g>
	<path d="M32.119,29.083l-7.834-5.334l4.797,8.13C29.081,31.92,29.07,31.958,29.07,32c0,1.618,1.312,2.93,2.93,2.93
		s2.93-1.312,2.93-2.93C34.93,30.423,33.681,29.146,32.119,29.083z"/>
	<path d="M32,1.008C14.884,1.008,1.008,14.883,1.008,32c0,17.116,13.876,30.992,30.992,30.992c17.117,0,30.992-13.876,30.992-30.992
		C62.992,14.883,49.117,1.008,32,1.008z M32,58.813C17.191,58.813,5.188,46.809,5.188,32C5.188,17.192,17.191,5.188,32,5.188
		S58.813,17.192,58.813,32C58.813,46.809,46.809,58.813,32,58.813z"/>
	<circle cx="9.096" cy="32" r="1.875"/>
	<circle cx="55.346" cy="32" r="1.875"/>
	<circle cx="32.596" cy="8.162" r="1.875"/>
	<circle cx="15.096" cy="16.412" r="1.875"/>
	<circle cx="48.846" cy="16.412" r="1.875"/>
</g>
</svg>
