<?xml version="1.0" encoding="utf-8"?>
<!-- Generator: Adobe Illustrator 15.0.0, SVG Export Plug-In . SVG Version: 6.00 Build 0)  -->
<!DOCTYPE svg PUBLIC "-//W3C//DTD SVG 1.1//EN" "http://www.w3.org/Graphics/SVG/1.1/DTD/svg11.dtd">
<svg version="1.1" id="Layer_1" xmlns="http://www.w3.org/2000/svg" xmlns:xlink="http://www.w3.org/1999/xlink" x="0px" y="0px"
	 width="64px" height="64px" viewBox="0 0 64 64" enable-background="new 0 0 64 64" xml:space="preserve">
<g>
	<path d="M33.688,35.752v6.463c2.354-0.398,3.531-1.418,3.531-3.063c0-0.727-0.295-1.342-0.883-1.844
		C35.746,36.807,34.863,36.288,33.688,35.752z"/>
	<path d="M26.783,23.395c0,0.762,0.264,1.389,0.791,1.882s1.381,0.999,2.557,1.519v-6.101
		C27.898,21.024,26.783,21.924,26.783,23.395z"/>
	<path d="M32,1.008C14.885,1.008,1.008,14.883,1.008,32c0,17.117,13.877,30.992,30.992,30.992c17.117,0,30.992-13.875,30.992-30.992
		C62.992,14.883,49.117,1.008,32,1.008z M42.047,45.395c-1.99,1.67-4.777,2.67-8.359,2.998v5.322h-3.557v-5.219
		c-4.223-0.086-7.926-0.83-11.109-2.231v-6.853c1.506,0.744,3.318,1.401,5.438,1.973c2.119,0.57,4.012,0.908,5.672,1.012V34.35
		l-1.738-0.675c-3.428-1.35-5.854-2.816-7.281-4.4s-2.143-3.543-2.143-5.88c0-2.509,0.982-4.573,2.947-6.191
		c1.963-1.618,4.701-2.6,8.215-2.946v-3.972h3.557v3.868c3.963,0.173,7.545,0.969,10.746,2.388l-2.439,6.075
		c-2.699-1.107-5.469-1.782-8.307-2.025v7.658c3.375,1.298,5.775,2.423,7.203,3.375c1.428,0.952,2.475,1.999,3.141,3.142
		c0.666,1.142,1,2.475,1,3.997C45.031,41.514,44.035,43.725,42.047,45.395z"/>
</g>
</svg>
