<?xml version="1.0" encoding="utf-8"?>
<!-- Generator: Adobe Illustrator 15.0.0, SVG Export Plug-In . SVG Version: 6.00 Build 0)  -->
<!DOCTYPE svg PUBLIC "-//W3C//DTD SVG 1.1//EN" "http://www.w3.org/Graphics/SVG/1.1/DTD/svg11.dtd">
<svg version="1.1" id="Layer_1" xmlns="http://www.w3.org/2000/svg" xmlns:xlink="http://www.w3.org/1999/xlink" x="0px" y="0px"
	 width="64px" height="64px" viewBox="0 0 64 64" enable-background="new 0 0 64 64" xml:space="preserve">
<g>
	<path fill="#231F20" d="M1.177,62.824L25.71,58.57l37.113-37.115L42.545,1.176L5.43,38.29L1.177,62.824z M23.783,56.181
		l-14.592,2.53L5.29,54.809l2.529-14.593L23.783,56.181z"/>
	<path fill="#231F20" d="M1.177,62.824L25.71,58.57l37.113-37.115L42.545,1.176L5.43,38.29L1.177,62.824z M23.783,56.181
		l-14.592,2.53L5.29,54.809l2.529-14.593L23.783,56.181z"/>
	<path fill="#231F20" d="M1.177,62.824L25.71,58.57l37.113-37.115L42.545,1.176L5.43,38.29L1.177,62.824z M23.783,56.181
		l-14.592,2.53L5.29,54.809l2.529-14.593L23.783,56.181z"/>
</g>
</svg>
