<?xml version="1.0" encoding="utf-8"?>
<!-- Generator: Adobe Illustrator 15.0.0, SVG Export Plug-In . SVG Version: 6.00 Build 0)  -->
<!DOCTYPE svg PUBLIC "-//W3C//DTD SVG 1.1//EN" "http://www.w3.org/Graphics/SVG/1.1/DTD/svg11.dtd">
<svg version="1.1" id="Layer_1" xmlns="http://www.w3.org/2000/svg" xmlns:xlink="http://www.w3.org/1999/xlink" x="0px" y="0px"
	 width="64px" height="64px" viewBox="0 0 64 64" enable-background="new 0 0 64 64" xml:space="preserve">
<g>
	<path d="M55.447,15.139H42.109V8.602c0-1.888-1.702-3.418-3.801-3.418H25.008c-2.099,0-3.801,1.53-3.801,3.418v6.537H8.553
		c-2.262,0-4.096,1.832-4.096,4.093v22.805h23.035v-7.001h8.833v7.001h23.218V19.231C59.543,16.971,57.709,15.139,55.447,15.139z
		 M24.226,15.139v-4.237c0-1.888,1.216-2.497,2.715-2.497h9.502c1.499,0,2.715,0.609,2.715,2.497v4.237H24.226z"/>
	<path d="M36.325,47.202h-8.833v-4H4.457v11.521c0,2.261,1.834,4.093,4.096,4.093h46.895c2.262,0,4.096-1.832,4.096-4.093V43.202
		H36.325V47.202z"/>
	<rect x="29.325" y="37.202" width="5.021" height="8"/>
</g>
</svg>
