<?xml version="1.0" encoding="utf-8"?>
<!-- Generator: Adobe Illustrator 15.0.0, SVG Export Plug-In . SVG Version: 6.00 Build 0)  -->
<!DOCTYPE svg PUBLIC "-//W3C//DTD SVG 1.1//EN" "http://www.w3.org/Graphics/SVG/1.1/DTD/svg11.dtd">
<svg version="1.1" id="Layer_1" xmlns="http://www.w3.org/2000/svg" xmlns:xlink="http://www.w3.org/1999/xlink" x="0px" y="0px"
	 width="64px" height="64px" viewBox="0 0 64 64" enable-background="new 0 0 64 64" xml:space="preserve">
<path d="M3.622,59.504c0,0-0.429-7.396,1.003-9.139c6.452-7.848,20.055-10.114,20.055-10.114l-0.073-5.39
	c0,0-2.978-4.529-3.44-6.201c-0.813-2.939-1.631-8.487-1.375-11.375c0.223-2.521,2.05-8.427,3.375-9.625
	c1.414-1.278,1.125-2.625,6.75-3.125c2-0.178,4.207-0.006,7.5,2.875c1,0.875,4.125,1.375,6.818,6.569
	c0.566,1.092,0.246,4.917,0.246,4.917s-0.736,7.375-1.229,8.604s-3.502,7.135-3.502,7.135l0.041,5.4c0,0,15.102,3.787,19.686,10.326
	c1.414,2.02,0.852,9.152,0.852,9.152L3.622,59.504z"/>
</svg>
