<?xml version="1.0" encoding="utf-8"?>
<!-- Generator: Adobe Illustrator 15.0.0, SVG Export Plug-In . SVG Version: 6.00 Build 0)  -->
<!DOCTYPE svg PUBLIC "-//W3C//DTD SVG 1.1//EN" "http://www.w3.org/Graphics/SVG/1.1/DTD/svg11.dtd">
<svg version="1.1" id="Layer_1" xmlns="http://www.w3.org/2000/svg" xmlns:xlink="http://www.w3.org/1999/xlink" x="0px" y="0px"
	 width="64px" height="64px" viewBox="0 0 64 64" enable-background="new 0 0 64 64" xml:space="preserve">
<path d="M32,1.008C14.885,1.008,1.008,14.885,1.008,32c0,17.117,13.877,30.992,30.993,30.992c17.117,0,30.992-13.875,30.992-30.992
	C62.992,14.885,49.117,1.008,32,1.008z M36.092,52.338h-8.184V22.337h8.184V52.338z M35.354,17.547
	c-0.742,0.707-1.855,1.06-3.339,1.06c-2.971,0-4.455-1.341-4.455-4.025c0-2.665,1.484-3.998,4.455-3.998
	c2.968,0,4.453,1.333,4.453,3.998C36.467,15.852,36.096,16.84,35.354,17.547z"/>
</svg>
