<?xml version="1.0" encoding="utf-8"?>
<!-- Generator: Adobe Illustrator 15.0.0, SVG Export Plug-In . SVG Version: 6.00 Build 0)  -->
<!DOCTYPE svg PUBLIC "-//W3C//DTD SVG 1.1//EN" "http://www.w3.org/Graphics/SVG/1.1/DTD/svg11.dtd">
<svg version="1.1" id="Layer_1" xmlns="http://www.w3.org/2000/svg" xmlns:xlink="http://www.w3.org/1999/xlink" x="0px" y="0px"
	 width="64px" height="64px" viewBox="0 0 64 64" enable-background="new 0 0 64 64" xml:space="preserve">
<g>
	<path d="M27.818,58.553h3.175v-6.414c-1.069-0.021-2.129-0.074-3.175-0.168V58.553z"/>
	<path d="M41.387,5.447v42.248c6.369-1.299,12.201-3.869,17.17-7.414V5.447H41.387z"/>
	<path d="M27.818,48.443c1.045,0.09,2.107,0.143,3.175,0.17V5.447h-3.175V48.443z"/>
	<path d="M5.443,58.553h17.178v-7.332c-6.372-1.287-12.205-3.857-17.178-7.406V58.553z"/>
	<path d="M5.443,40.285c4.973,3.541,10.807,6.111,17.178,7.41V5.447H5.443V40.285z"/>
	<path d="M41.387,58.553h17.17V43.814c-4.969,3.541-10.801,6.119-17.17,7.406V58.553z"/>
</g>
</svg>
