<?xml version="1.0" encoding="utf-8"?>
<!-- Generator: Adobe Illustrator 15.0.0, SVG Export Plug-In . SVG Version: 6.00 Build 0)  -->
<!DOCTYPE svg PUBLIC "-//W3C//DTD SVG 1.1//EN" "http://www.w3.org/Graphics/SVG/1.1/DTD/svg11.dtd">
<svg version="1.1" id="Layer_1" xmlns="http://www.w3.org/2000/svg" xmlns:xlink="http://www.w3.org/1999/xlink" x="0px" y="0px"
	 width="64px" height="64px" viewBox="0 0 64 64" enable-background="new 0 0 64 64" xml:space="preserve">
<path fill="#231F20" d="M45.441,12.945c-2.186,0-3.957,1.773-3.957,3.961c0,0.906,0.316,1.73,0.828,2.398l-2.605,1.438
	c-8.182-8.355-19.738-10.445-26.34-4.539c-6.857,6.133-5.76,18.547,2.453,27.73c8.211,9.184,20.43,11.656,27.287,5.523
	c6.666-5.961,5.795-17.852-1.803-26.949l1.48-2.688c0.703,0.641,1.629,1.043,2.656,1.043c2.186,0,3.957-1.773,3.957-3.957
	C49.398,14.719,47.627,12.945,45.441,12.945z M43.813,42.895c-4.164,3.723-13.059,0.574-19.863-7.035
	c-6.807-7.609-8.947-16.801-4.781-20.523c4.008-3.586,12.391-0.789,19.082,6.207l-9,4.957l6.355,6.355l4.84-8.785
	C46.111,31.301,47.672,39.445,43.813,42.895z"/>
<path fill="#231F20" d="M14.297,46.352c-1.76-1.965-3.191-4.082-4.289-6.254L2.221,62.164l41.887-0.074l-3.711-9.277
	C33.385,57.711,22.055,55.031,14.297,46.352z"/>
<path fill="#231F20" d="M45.826,8.563l0.836,1.207c2.26-1.566,5.357-0.996,6.92,1.262s0.998,5.355-1.262,6.918l0.836,1.207
	c2.926-2.023,3.658-6.039,1.633-8.961C52.766,7.266,48.752,6.535,45.826,8.563z"/>
<path fill="#231F20" d="M59.939,6.301c-3.252-4.703-9.701-5.879-14.404-2.625l1.344,1.941c3.629-2.508,8.607-1.602,11.117,2.027
	c2.512,3.629,1.605,8.605-2.023,11.121l1.344,1.938C62.018,17.453,63.191,11.004,59.939,6.301z"/>
<rect fill="none" width="64" height="64"/>
</svg>
