<?xml version="1.0" encoding="utf-8"?>
<!-- Generator: Adobe Illustrator 15.0.0, SVG Export Plug-In . SVG Version: 6.00 Build 0)  -->
<!DOCTYPE svg PUBLIC "-//W3C//DTD SVG 1.1//EN" "http://www.w3.org/Graphics/SVG/1.1/DTD/svg11.dtd">
<svg version="1.1" id="Layer_1" xmlns="http://www.w3.org/2000/svg" xmlns:xlink="http://www.w3.org/1999/xlink" x="0px" y="0px"
	 width="64px" height="64px" viewBox="0 0 64 64" enable-background="new 0 0 64 64" xml:space="preserve">
<path d="M59.477,50.533c-4.584-6.539-19.686-10.327-19.686-10.327l-0.025-3.25h5.791l-1.419-14.769
	c0.201-1.699,0.343-3.121,0.343-3.121s-0.041-3.703-0.246-4.917c-1.203-7.119-5.103-11.153-14.318-9.444
	c-4.391,0.814-4.67,1.944-7.157,4.369c-3,2.924-2.746,5.86-2.968,8.381c-0.135,1.524,0.03,3.787,0.334,6.019l-1.446,13.462h5.953
	l0.047,3.485c0,0-13.603,2.268-20.055,10.115c-1.432,1.741-1.003,9.138-1.003,9.138l56.707,0.01
	C60.328,59.685,60.891,52.551,59.477,50.533z"/>
</svg>
