<?xml version="1.0" encoding="utf-8"?>
<!-- Generator: Adobe Illustrator 15.0.0, SVG Export Plug-In . SVG Version: 6.00 Build 0)  -->
<!DOCTYPE svg PUBLIC "-//W3C//DTD SVG 1.1//EN" "http://www.w3.org/Graphics/SVG/1.1/DTD/svg11.dtd">
<svg version="1.1" id="Layer_1" xmlns="http://www.w3.org/2000/svg" xmlns:xlink="http://www.w3.org/1999/xlink" x="0px" y="0px"
	 width="64px" height="64px" viewBox="0 0 64 64" enable-background="new 0 0 64 64" xml:space="preserve">
<g>
	<path d="M32.134,63.705c2.967,0,5.371-2.402,5.371-5.369H26.763C26.763,61.303,29.168,63.705,32.134,63.705z"/>
	<path d="M57.434,50.875c-1.608-0.855-6.61-4.064-7.097-10.914V23.122h-0.023c-0.21-7.293-5.732-13.396-13.247-15.334
		c0.28-0.651,0.438-1.367,0.438-2.122c0-2.966-2.404-5.371-5.371-5.371S26.763,2.7,26.763,5.666c0,0.729,0.148,1.422,0.411,2.055
		c-7.662,1.853-13.328,8.015-13.54,15.401h-0.001v16.824c-0.45,6.766-5.31,10-7.015,10.93H5.575v5.371h52.85v-5.371H57.434z"/>
</g>
</svg>
