<?xml version="1.0" encoding="utf-8"?>
<!-- Generator: Adobe Illustrator 15.0.0, SVG Export Plug-In . SVG Version: 6.00 Build 0)  -->
<!DOCTYPE svg PUBLIC "-//W3C//DTD SVG 1.1//EN" "http://www.w3.org/Graphics/SVG/1.1/DTD/svg11.dtd">
<svg version="1.1" id="Layer_1" xmlns="http://www.w3.org/2000/svg" xmlns:xlink="http://www.w3.org/1999/xlink" x="0px" y="0px"
	 width="64px" height="64px" viewBox="0 0 64 64" enable-background="new 0 0 64 64" xml:space="preserve">
<polygon points="9.573,3.528 9.56,4.357 8.498,4.357 8.498,59.486 9.489,59.486 9.489,60.466 17.54,60.466 17.54,57.499 
	12.528,57.499 12.528,56.447 17.54,56.447 17.54,54.499 12.528,54.499 12.528,53.447 17.54,53.447 17.54,51.499 12.528,51.499 
	12.528,50.447 17.54,50.447 17.54,48.499 12.528,48.499 12.528,47.447 17.54,47.447 17.54,45.499 12.528,45.499 12.528,44.447 
	17.54,44.447 17.54,42.499 12.528,42.499 12.528,41.447 17.54,41.447 17.54,39.499 12.528,39.499 12.528,38.447 17.54,38.447 
	17.54,36.499 12.528,36.499 12.528,35.447 17.54,35.447 17.54,33.499 12.528,33.499 12.528,32.447 17.54,32.447 17.54,30.499 
	12.528,30.499 12.528,29.447 17.54,29.447 17.54,27.499 12.528,27.499 12.528,26.447 17.54,26.447 17.54,24.499 12.528,24.499 
	12.528,23.447 17.54,23.447 17.54,21.499 12.528,21.499 12.528,20.447 17.54,20.447 17.54,18.499 12.528,18.499 12.528,17.447 
	17.54,17.447 17.54,15.499 12.528,15.499 12.528,14.447 17.54,14.447 17.54,12.499 12.528,12.499 12.528,11.447 17.54,11.447 
	17.54,9.499 12.528,9.499 12.528,8.447 17.54,8.447 17.54,6.499 12.528,6.499 12.528,4.357 12.503,4.357 12.503,4.349 55.502,4.349 
	55.502,3.528 "/>
<path d="M18.589,60.472h36.768V6.45H18.589V60.472z M23.017,41.9c3.315-4.033,10.307-5.198,10.307-5.198l-0.039-2.77
	c0,0-1.529-2.328-1.768-3.187c-0.418-1.511-0.838-4.361-0.707-5.846c0.115-1.295,1.053-4.33,1.734-4.946
	c0.727-0.656,0.578-1.349,3.469-1.605c1.027-0.092,2.162-0.003,3.855,1.478c0.512,0.449,2.119,0.706,3.504,3.376
	c0.289,0.562,0.125,2.526,0.125,2.526s-0.379,3.79-0.631,4.421c-0.252,0.632-1.799,3.667-1.799,3.667l0.02,2.775
	c0,0,7.762,1.946,10.117,5.307c0.727,1.037,0.438,4.702,0.438,4.702l-29.141-0.005C22.501,46.596,22.282,42.795,23.017,41.9z"/>
</svg>
