<?xml version="1.0" encoding="utf-8"?>
<!-- Generator: Adobe Illustrator 15.0.0, SVG Export Plug-In . SVG Version: 6.00 Build 0)  -->
<!DOCTYPE svg PUBLIC "-//W3C//DTD SVG 1.1//EN" "http://www.w3.org/Graphics/SVG/1.1/DTD/svg11.dtd">
<svg version="1.1" id="Layer_1" xmlns="http://www.w3.org/2000/svg" xmlns:xlink="http://www.w3.org/1999/xlink" x="0px" y="0px"
	 width="64px" height="64px" viewBox="0 0 64 64" enable-background="new 0 0 64 64" xml:space="preserve">
<rect fill="none" width="64" height="64"/>
<rect x="15.661" y="5.303" fill="none" width="43.229" height="56.811"/>
<path fill="#231F20" d="M15.719,5.625v56.479H58.8V5.625H15.719z M52.672,47.436l-30.815-0.005c0,0-0.232-4.019,0.545-4.966
	c3.506-4.265,10.899-5.496,10.899-5.496l-0.041-2.93c0,0-1.617-2.462-1.869-3.369c-0.442-1.598-0.887-4.612-0.747-6.182
	c0.121-1.37,1.113-4.58,1.834-5.231c0.769-0.693,0.611-1.426,3.668-1.697c1.087-0.098,2.287-0.004,4.076,1.563
	c0.542,0.475,2.241,0.746,3.705,3.569c0.308,0.595,0.133,2.673,0.133,2.673s-0.399,4.007-0.667,4.675
	c-0.267,0.668-1.902,3.878-1.902,3.878l0.021,2.935c0,0,8.207,2.059,10.698,5.611C52.978,43.561,52.672,47.436,52.672,47.436z"/>
<polygon fill="#231F20" points="9.313,2.754 58.953,2.754 58.953,1.887 6.185,1.887 6.189,2.764 5.047,2.764 5.047,61.063 
	6.095,61.063 6.095,62.098 14.609,62.098 14.609,5.725 9.309,5.725 "/>
</svg>
