<?xml version="1.0" encoding="utf-8"?>
<!-- Generator: Adobe Illustrator 15.0.0, SVG Export Plug-In . SVG Version: 6.00 Build 0)  -->
<!DOCTYPE svg PUBLIC "-//W3C//DTD SVG 1.1//EN" "http://www.w3.org/Graphics/SVG/1.1/DTD/svg11.dtd">
<svg version="1.1" id="Layer_1" xmlns="http://www.w3.org/2000/svg" xmlns:xlink="http://www.w3.org/1999/xlink" x="0px" y="0px"
	 width="64px" height="64px" viewBox="0 0 64 64" enable-background="new 0 0 64 64" xml:space="preserve">
<g>
	<path d="M32.165,26.007L2.304,52.118c0,0-1.607,1.226-0.5,4.25c0.639,1.745,3.174,3.802,4.25,4.5c2.372,1.538,4-0.5,4-0.5
		L36.631,30.7L32.165,26.007z"/>
	<rect x="31.283" y="57.639" width="30" height="6.167"/>
	<rect x="34.283" y="53.473" width="24" height="3.166"/>
	<rect x="32.64" y="9.793" transform="matrix(-0.7125 0.7016 -0.7016 -0.7125 87.8719 3.768)" width="21.049" height="20.184"/>
	<rect x="30.453" y="-0.963" transform="matrix(0.7016 0.7126 -0.7126 0.7016 16.7332 -20.8311)" width="5.567" height="21.049"/>
	<rect x="42.609" y="26.897" transform="matrix(-0.7125 0.7016 -0.7016 -0.7125 111.8182 13.5479)" width="21.049" height="5.567"/>
</g>
</svg>
