<?xml version="1.0" encoding="utf-8"?>
<!-- Generator: Adobe Illustrator 15.0.0, SVG Export Plug-In . SVG Version: 6.00 Build 0)  -->
<!DOCTYPE svg PUBLIC "-//W3C//DTD SVG 1.1//EN" "http://www.w3.org/Graphics/SVG/1.1/DTD/svg11.dtd">
<svg version="1.1" id="Layer_1" xmlns="http://www.w3.org/2000/svg" xmlns:xlink="http://www.w3.org/1999/xlink" x="0px" y="0px"
	 width="64px" height="64px" viewBox="0 0 64 64" enable-background="new 0 0 64 64" xml:space="preserve">
<path d="M32,1.008C14.884,1.008,1.008,14.883,1.008,32c0,17.117,13.876,30.992,30.992,30.992c17.117,0,30.992-13.875,30.992-30.992
	C62.992,14.883,49.117,1.008,32,1.008z M32,10.74c3.96,0,7.653,1.102,10.828,2.987l-29.1,29.099
	c-1.885-3.174-2.987-6.867-2.987-10.827C10.741,20.258,20.26,10.74,32,10.74z M32,53.259c-4.128,0-7.969-1.196-11.229-3.232
	l29.257-29.257c2.036,3.262,3.232,7.102,3.232,11.23C53.26,43.74,43.742,53.259,32,53.259z"/>
</svg>
