<?xml version="1.0" encoding="utf-8"?>
<!-- Generator: Adobe Illustrator 15.0.0, SVG Export Plug-In . SVG Version: 6.00 Build 0)  -->
<!DOCTYPE svg PUBLIC "-//W3C//DTD SVG 1.1//EN" "http://www.w3.org/Graphics/SVG/1.1/DTD/svg11.dtd">
<svg version="1.1" id="Layer_1" xmlns="http://www.w3.org/2000/svg" xmlns:xlink="http://www.w3.org/1999/xlink" x="0px" y="0px"
	 width="64px" height="64px" viewBox="0 0 64 64" enable-background="new 0 0 64 64" xml:space="preserve">
<g>
	<polygon points="32.047,40.478 48.061,24.463 39.006,24.463 39.006,1.512 25.008,1.512 25.008,24.463 16.033,24.463 	"/>
	<polygon points="41,6.512 41,11.387 55.125,11.387 55.125,49.568 46.375,49.568 42.44,54.119 21.56,54.119 17.625,49.568 
		8.875,49.568 8.875,11.387 23,11.387 23,6.512 4,6.512 4,7.824 4,11.387 4,49.568 4,62.48 5.099,62.488 60,62.48 60,49.568 
		60,11.387 60,7.824 60,6.512 	"/>
</g>
</svg>
