<?xml version="1.0" encoding="utf-8"?>
<!-- Generator: Adobe Illustrator 15.0.0, SVG Export Plug-In . SVG Version: 6.00 Build 0)  -->
<!DOCTYPE svg PUBLIC "-//W3C//DTD SVG 1.1//EN" "http://www.w3.org/Graphics/SVG/1.1/DTD/svg11.dtd">
<svg version="1.1" id="Layer_1" xmlns="http://www.w3.org/2000/svg" xmlns:xlink="http://www.w3.org/1999/xlink" x="0px" y="0px"
	 width="64px" height="64px" viewBox="0 0 64 64" enable-background="new 0 0 64 64" xml:space="preserve">
<path d="M57.071,12.559c-0.036-1.435-0.64-2.844-1.819-3.835l-5.474-4.597c-2.193-1.843-5.479-1.543-7.339,0.67l-5.227,6.221
	c-1.859,2.213-1.588,5.503,0.606,7.346l5.473,4.597c0.452,0.38,0.958,0.646,1.481,0.847L25.928,45.668
	c-0.009-0.008-0.016-0.018-0.024-0.025l-5.474-4.596c-2.193-1.844-5.479-1.543-7.339,0.67l-5.227,6.221
	c-1.859,2.214-1.588,5.504,0.606,7.347l5.473,4.597c1.6,1.344,3.775,1.535,5.561,0.689c12.6-2.869,32.252-27.592,36.64-39.339
	C57.559,17.441,57.57,14.613,57.071,12.559z"/>
</svg>
