<svg xmlns="http://www.w3.org/2000/svg" xmlns:xlink="http://www.w3.org/1999/xlink" version="1.1" x="0px" y="0px" width="100px" height="100px" viewBox="0 0 100 100" enable-background="new 0 0 100 100" xml:space="preserve">
<g id="Captions">
</g>
<g id="Your_Icon">
	<g id="layer1">
		<path id="path1360" d="M34.006,0l-1.48,2.214l-1.408,0.199l-0.52,0.648l-1.73,0.099l-0.367,0.911L27.89,3.658h-1.462L25.63,2.88    L24.164,2.4l-1.431-0.408l1.874,1.819l0.313,3.573l1.811-0.027l-0.104,1.195l-1.607-0.005l-0.172,1.101l-2.866,1.168l-4.269,0.126    l-0.919-1.286L16.68,7.729l-1.213,1.014l-0.393,0.086l-0.382-0.602l-0.448,0.036l-0.068,0.479l-3.694,0.1l-0.349,2.092    l1.308,0.054l-0.027,0.883l-2.096-0.054L9.25,13.334l1.073,1.268l0.054,2.667l0.439,2.604l-1.431,4.233l-2.513-0.091l-1.114,1.367    l-1.457-0.118l-0.693,1.087L2.36,26.383L2.191,28.13L1.39,28.162l-0.154,3.166l-0.239,0.416l-0.358-0.126l-0.584-0.028L0,34.659    l0.987,0.707l0.004,1.154l2.005,2.215l1.381,0.022l0.1,1.227l2.172-0.053l0.616-0.784l1.259-0.367l0.05,3.822l6.688-0.037    l-0.028-0.978l0.236-0.376l0.199,0.413l0.729-0.263l0.009-0.751l0.986-0.077l0.19-0.855l0.793-0.67l0.372,0.117l1.307-0.72    l0.005,0.022l1.042,0.041l0.806,0.299l0.38,0.539l-0.371,1.34l0.077,1.571l1.054,1.539l1.068,1l2.314,1.259l3.228,1.273    l4.211,1.232l0.29,0.928l0.833,0.285l0.1,1.481l-0.502,0.092l-0.585,0.488l0.77,1.258l0.317,1.869l4.062-0.013l0.122,1.158    l0.313,0.594l1.013,0.832l0.549,2.106l0.53,0.479l-0.412,1.087l0.077,6.534l-0.394,1.701l0.39,0.773l4.024-0.008l-0.04,0.49    l0.995,0.012l0.173,0.762l0.955,0.014l-0.109,3.079l2.11-0.661l0.05,4.608l0.09,0.499l1.395-0.059l-0.036,1.235l-0.028,0.026    l0.028,0.967l-0.477,0.821l-1.58,0.92l0.751-0.096l-2.164,0.399l-0.023,1.037l-1.354,0.811l-1.336,1.818l-0.181,1.183    l-2.395,2.653l2.119,0.308l1.332,0.81l0.321,0.812l1.471,0.861l1.521,0.03l0.964,0.398l0.091,1.087l0.647,1.183l0.597,0.122    l0.276,1.915l-0.553,0.352l-0.231,0.975l1.262-0.173l0.654-0.862l0.932-0.358l0.366-1.573l0.503-0.973l2.668-1.564l0.547-1.132    l0.774-1.362l0.867-0.673l1.034-2.413l0.054-0.114l0.766-0.274l0.444-1.015l1.084-1.014l0.124-5.515l0.721-1.201l0.14-0.154    l0.47-0.284l0.657-0.412l0.04-0.085l1.458-1.374l0.327-1.2l1.413-0.548l2.148-0.333l0.545-0.244l0.198-0.68l1.064,0.014    l0.092-0.014l1.275-0.081l0.23-0.647l5.221-0.037l0.368-0.299l0.315-0.865l1.925-0.47l0.452-0.603l-0.081-1.386l-0.005-0.073    l0.21-0.303l0.451-0.175l0.688,0.057l0.269-0.647l0.099-0.927l0.492-0.638l0.898-1.083l0.33-1.625l-0.05-1.246l0.33-1.111    l-0.19-0.817l-0.022-0.141l0.018,0.019l0.783,0.059l0.86-0.195l0.077-1.934l0.381-0.85l0.199-1.453l0.264-0.794l0.679-0.669    l0.081-5.601l-0.344-0.974l0.937-0.09l1.061-0.575l0.574-0.697l0.515-0.453l0.101-1.056l0.755-0.457l0.219-0.815l-0.026-0.009    l1.245-1.078l1.245-1.675l0.026-0.046l1.077-0.216l0.127-1.059l1.072-0.295l0.774-1.593l0.123-0.716l-0.01-0.009l0.689-0.417    l0.528-1.381l0.031-2.26l0.006-0.004l0.026-2.146l-0.026-0.026l0.081-1.268l-0.529-0.751L98.6,27.388l-4.074-0.055l-1.947-1.368    L92.6,25.93c-2.226-2.386-5.192-4.709-9.354-4.396v-0.009l-1.507-0.38l-0.054,0.076l-4.274-1.317l-0.477,0.661l-0.854-0.218    l-1.35-1.733l-0.869-0.217l-1.431-0.915l-0.693-0.394l-1.226-0.154l-0.009,0.022l-0.992-1.385l-3.482,0.032l-0.501,1.639    l-0.767,0.516l-0.705-0.498l0.067-1.417l1.078-1.448l-2.931-0.19l-0.33-0.517l-1.312-0.01l-0.371-1.81l0.679-1.191l0.171-0.933    L60.215,8.38l-1.579-0.13L57.15,2.79l-0.566-0.068l-2.661,5.266L48.72,7.417l-0.009-0.05l-1.109,0.316L45.61,7.58l-0.072,1.594    l-3.786,0.199l-0.764,0.679l-2.156,0.131v0.01l-1.974-0.154l-0.23-0.879l-1.399-1.154L35.79,1.82l-0.566-0.186l0.05-1.181    l-0.322-0.449L34.006,0z"/>
	</g>
</g>
</svg>